<mxfile host="app.diagrams.net" modified="2024-06-20T20:22:55.778Z" agent="Mozilla/5.0 (Windows NT 10.0; Win64; x64) AppleWebKit/537.36 (KHTML, like Gecko) Chrome/126.0.0.0 Safari/537.36 Edg/126.0.0.0" etag="TH4V2CSnPN5LNcYVFhZs" version="24.5.5" type="device">
  <diagram name="PÃ¡gina-1" id="8WEoaw2qikWcHpahMB9U">
    <mxGraphModel dx="904" dy="665" grid="1" gridSize="10" guides="1" tooltips="1" connect="1" arrows="1" fold="1" page="1" pageScale="1" pageWidth="827" pageHeight="1169" math="0" shadow="0">
      <root>
        <mxCell id="0" />
        <mxCell id="1" parent="0" />
        <mxCell id="QUs9Pb6qHysJ97jUIggh-3" value="" style="edgeStyle=orthogonalEdgeStyle;rounded=0;orthogonalLoop=1;jettySize=auto;html=1;" edge="1" parent="1" source="QUs9Pb6qHysJ97jUIggh-1" target="QUs9Pb6qHysJ97jUIggh-2">
          <mxGeometry relative="1" as="geometry" />
        </mxCell>
        <mxCell id="QUs9Pb6qHysJ97jUIggh-1" value="inicio" style="strokeWidth=2;html=1;shape=mxgraph.flowchart.start_1;whiteSpace=wrap;" vertex="1" parent="1">
          <mxGeometry x="364" y="50" width="100" height="60" as="geometry" />
        </mxCell>
        <mxCell id="QUs9Pb6qHysJ97jUIggh-5" value="" style="edgeStyle=orthogonalEdgeStyle;rounded=0;orthogonalLoop=1;jettySize=auto;html=1;entryX=0.506;entryY=0.197;entryDx=0;entryDy=0;entryPerimeter=0;" edge="1" parent="1" source="QUs9Pb6qHysJ97jUIggh-2" target="QUs9Pb6qHysJ97jUIggh-4">
          <mxGeometry relative="1" as="geometry" />
        </mxCell>
        <mxCell id="QUs9Pb6qHysJ97jUIggh-2" value="numeroAleatorio[15],&lt;div&gt;numeroBusca=0,&lt;/div&gt;&lt;div&gt;qtdNumero=0,&lt;/div&gt;&lt;div&gt;i&lt;/div&gt;" style="shape=parallelogram;html=1;strokeWidth=2;perimeter=parallelogramPerimeter;whiteSpace=wrap;rounded=1;arcSize=12;size=0.23;" vertex="1" parent="1">
          <mxGeometry x="324" y="160" width="180" height="90" as="geometry" />
        </mxCell>
        <mxCell id="QUs9Pb6qHysJ97jUIggh-7" value="" style="edgeStyle=orthogonalEdgeStyle;rounded=0;orthogonalLoop=1;jettySize=auto;html=1;" edge="1" parent="1" source="QUs9Pb6qHysJ97jUIggh-4" target="QUs9Pb6qHysJ97jUIggh-6">
          <mxGeometry relative="1" as="geometry" />
        </mxCell>
        <mxCell id="QUs9Pb6qHysJ97jUIggh-4" value="numeroBusca" style="html=1;strokeWidth=2;shape=manualInput;whiteSpace=wrap;rounded=1;size=26;arcSize=11;" vertex="1" parent="1">
          <mxGeometry x="364" y="310" width="100" height="60" as="geometry" />
        </mxCell>
        <mxCell id="QUs9Pb6qHysJ97jUIggh-9" value="" style="edgeStyle=orthogonalEdgeStyle;rounded=0;orthogonalLoop=1;jettySize=auto;html=1;" edge="1" parent="1" source="QUs9Pb6qHysJ97jUIggh-6" target="QUs9Pb6qHysJ97jUIggh-8">
          <mxGeometry relative="1" as="geometry" />
        </mxCell>
        <mxCell id="QUs9Pb6qHysJ97jUIggh-6" value="i=0 ate i&amp;lt;=14&lt;div&gt;i++&lt;/div&gt;" style="strokeWidth=2;html=1;shape=mxgraph.flowchart.merge_or_storage;whiteSpace=wrap;" vertex="1" parent="1">
          <mxGeometry x="350" y="450" width="130" height="80" as="geometry" />
        </mxCell>
        <mxCell id="QUs9Pb6qHysJ97jUIggh-11" value="" style="edgeStyle=orthogonalEdgeStyle;rounded=0;orthogonalLoop=1;jettySize=auto;html=1;" edge="1" parent="1" source="QUs9Pb6qHysJ97jUIggh-8" target="QUs9Pb6qHysJ97jUIggh-10">
          <mxGeometry relative="1" as="geometry" />
        </mxCell>
        <mxCell id="QUs9Pb6qHysJ97jUIggh-12" value="VERDADE" style="edgeLabel;html=1;align=center;verticalAlign=middle;resizable=0;points=[];" vertex="1" connectable="0" parent="QUs9Pb6qHysJ97jUIggh-11">
          <mxGeometry x="-0.0392" y="-1" relative="1" as="geometry">
            <mxPoint as="offset" />
          </mxGeometry>
        </mxCell>
        <mxCell id="QUs9Pb6qHysJ97jUIggh-14" value="" style="edgeStyle=orthogonalEdgeStyle;rounded=0;orthogonalLoop=1;jettySize=auto;html=1;" edge="1" parent="1" source="QUs9Pb6qHysJ97jUIggh-8" target="QUs9Pb6qHysJ97jUIggh-13">
          <mxGeometry relative="1" as="geometry" />
        </mxCell>
        <mxCell id="QUs9Pb6qHysJ97jUIggh-15" value="FALSO" style="edgeLabel;html=1;align=center;verticalAlign=middle;resizable=0;points=[];" vertex="1" connectable="0" parent="QUs9Pb6qHysJ97jUIggh-14">
          <mxGeometry x="0.0353" y="2" relative="1" as="geometry">
            <mxPoint as="offset" />
          </mxGeometry>
        </mxCell>
        <mxCell id="QUs9Pb6qHysJ97jUIggh-8" value="numeroBusca=numeroAleatorio[i]&lt;div&gt;qtdNumero++&lt;/div&gt;" style="strokeWidth=2;html=1;shape=mxgraph.flowchart.decision;whiteSpace=wrap;" vertex="1" parent="1">
          <mxGeometry x="310" y="590" width="210" height="130" as="geometry" />
        </mxCell>
        <mxCell id="QUs9Pb6qHysJ97jUIggh-19" value="" style="edgeStyle=orthogonalEdgeStyle;rounded=0;orthogonalLoop=1;jettySize=auto;html=1;" edge="1" parent="1" source="QUs9Pb6qHysJ97jUIggh-10" target="QUs9Pb6qHysJ97jUIggh-18">
          <mxGeometry relative="1" as="geometry" />
        </mxCell>
        <mxCell id="QUs9Pb6qHysJ97jUIggh-10" value="O numero da pesquisa se encontra na coluna, i" style="strokeWidth=2;html=1;shape=mxgraph.flowchart.display;whiteSpace=wrap;" vertex="1" parent="1">
          <mxGeometry x="330" y="800" width="170" height="90" as="geometry" />
        </mxCell>
        <mxCell id="QUs9Pb6qHysJ97jUIggh-16" style="edgeStyle=orthogonalEdgeStyle;rounded=0;orthogonalLoop=1;jettySize=auto;html=1;entryX=1;entryY=0.5;entryDx=0;entryDy=0;exitX=0.5;exitY=0;exitDx=0;exitDy=0;exitPerimeter=0;" edge="1" parent="1" source="QUs9Pb6qHysJ97jUIggh-13" target="QUs9Pb6qHysJ97jUIggh-4">
          <mxGeometry relative="1" as="geometry" />
        </mxCell>
        <mxCell id="QUs9Pb6qHysJ97jUIggh-13" value="Numero digitado nao se encontra nessa matriz! digite de novo." style="strokeWidth=2;html=1;shape=mxgraph.flowchart.display;whiteSpace=wrap;movable=1;resizable=1;rotatable=1;deletable=1;editable=1;locked=0;connectable=1;" vertex="1" parent="1">
          <mxGeometry x="600" y="612.5" width="160" height="85" as="geometry" />
        </mxCell>
        <mxCell id="QUs9Pb6qHysJ97jUIggh-18" value="fim" style="strokeWidth=2;html=1;shape=mxgraph.flowchart.start_1;whiteSpace=wrap;" vertex="1" parent="1">
          <mxGeometry x="365" y="970" width="100" height="60" as="geometry" />
        </mxCell>
      </root>
    </mxGraphModel>
  </diagram>
</mxfile>
